<svg width="800" height="450" viewBox="0 0 800 450" xmlns="http://www.w3.org/2000/svg">
  <defs>
    <linearGradient id="bg" x1="0%" y1="0%" x2="100%" y2="100%">
      <stop offset="0%" style="stop-color:#0c0a1e"/>
      <stop offset="100%" style="stop-color:#1a0533"/>
    </linearGradient>
  </defs>
  <rect width="800" height="450" fill="url(#bg)"/>
  <!-- Component grid -->
  <rect x="40" y="50" width="100" height="100" rx="14" fill="rgba(139,92,246,0.2)" stroke="rgba(139,92,246,0.5)" stroke-width="1.5"/>
  <rect x="60" y="75" width="60" height="8" rx="4" fill="rgba(167,139,250,0.7)"/>
  <rect x="60" y="95" width="40" height="6" rx="3" fill="rgba(255,255,255,0.3)"/>
  <rect x="60" y="112" width="50" height="20" rx="6" fill="rgba(139,92,246,0.5)"/>

  <rect x="160" y="50" width="100" height="100" rx="14" fill="rgba(34,211,238,0.2)" stroke="rgba(34,211,238,0.5)" stroke-width="1.5"/>
  <rect x="180" y="75" width="60" height="8" rx="4" fill="rgba(34,211,238,0.7)"/>
  <rect x="180" y="95" width="40" height="6" rx="3" fill="rgba(255,255,255,0.3)"/>
  <rect x="180" y="112" width="50" height="20" rx="6" fill="rgba(34,211,238,0.5)"/>

  <rect x="280" y="50" width="100" height="100" rx="14" fill="rgba(236,72,153,0.2)" stroke="rgba(236,72,153,0.5)" stroke-width="1.5"/>
  <rect x="300" y="75" width="60" height="8" rx="4" fill="rgba(236,72,153,0.7)"/>
  <rect x="300" y="95" width="40" height="6" rx="3" fill="rgba(255,255,255,0.3)"/>
  <circle cx="325" cy="122" r="12" fill="rgba(236,72,153,0.5)"/>

  <!-- Large card preview -->
  <rect x="420" y="40" width="340" height="220" rx="16" fill="rgba(255,255,255,0.04)" stroke="rgba(139,92,246,0.3)" stroke-width="1"/>
  <rect x="440" y="60" width="200" height="14" rx="7" fill="rgba(255,255,255,0.5)"/>
  <rect x="440" y="86" width="280" height="8" rx="4" fill="rgba(255,255,255,0.2)"/>
  <rect x="440" y="104" width="240" height="8" rx="4" fill="rgba(255,255,255,0.15)"/>
  <rect x="440" y="140" width="120" height="36" rx="10" fill="rgba(139,92,246,0.6)"/>
  <rect x="576" y="140" width="100" height="36" rx="10" fill="rgba(255,255,255,0.1)" stroke="rgba(255,255,255,0.2)" stroke-width="1"/>

  <!-- Storybook-like panel -->
  <rect x="40" y="190" width="360" height="220" rx="16" fill="rgba(0,0,0,0.3)" stroke="rgba(255,255,255,0.05)" stroke-width="1"/>
  <rect x="40" y="190" width="360" height="36" rx="16" fill="rgba(139,92,246,0.15)"/>
  <circle cx="62" cy="208" r="6" fill="#ef4444"/>
  <circle cx="82" cy="208" r="6" fill="#f59e0b"/>
  <circle cx="102" cy="208" r="6" fill="#22c55e"/>

  <text x="400" y="400" text-anchor="middle" font-family="sans-serif" font-size="22" font-weight="bold" fill="rgba(167,139,250,0.9)">Aurora UI</text>
  <text x="400" y="428" text-anchor="middle" font-family="sans-serif" font-size="13" fill="rgba(148,163,184,0.7)">Open Source Component Library � 60+ Components</text>
</svg>
